#N canvas 511 530 586 412 10;
#X obj 82 117 loadbang;
#X obj 82 167 metro 1000;
#X msg 82 199 Wello World;
#X msg 169 189 connect 192.168.1.116 7000;
#X obj 82 335 netsend -u -b;
#X obj 82 138 t b b, f 15;
#X obj 82 222 fudiformat;
#X obj 82 243 list prepend send;
#X obj 82 264 list trim;
#X msg 20 290 send 1 2 3 4;
#X connect 0 0 5 0;
#X connect 1 0 2 0;
#X connect 1 0 9 0;
#X connect 2 0 6 0;
#X connect 3 0 4 0;
#X connect 5 0 1 0;
#X connect 5 1 3 0;
#X connect 6 0 7 0;
#X connect 7 0 8 0;
#X connect 9 0 4 0;
