#N canvas 268 221 676 655 10;
#X msg 318 64 \; pd dsp 1;
#X obj 283 26 loadbang;
#X obj 283 101 metro 100;
#X obj 176 277 osc~ 440;
#X obj 176 378 *~;
#X obj 219 342 line~;
#X msg 219 311 1 \, 0 120;
#X obj 176 399 *~ 0.5;
#X obj 421 299 print;
#X obj 219 445 dac~;
#X obj 270 389 *~;
#X obj 313 353 line~;
#X msg 313 322 1 \, 0 120;
#X obj 270 410 *~ 0.5;
#X obj 298 291 osc~ 460;
#X obj 283 138 f;
#X obj 343 163 + 1;
#X obj 283 163 % 2;
#X obj 283 188 sel 0 1;
#X msg 470 253 dx;
#X msg 421 253 sx;
#X connect 1 0 0 0;
#X connect 1 0 2 0;
#X connect 2 0 15 0;
#X connect 3 0 4 0;
#X connect 4 0 7 0;
#X connect 5 0 4 1;
#X connect 6 0 5 0;
#X connect 7 0 9 0;
#X connect 10 0 13 0;
#X connect 11 0 10 1;
#X connect 12 0 11 0;
#X connect 13 0 9 1;
#X connect 14 0 10 0;
#X connect 15 0 16 0;
#X connect 15 0 17 0;
#X connect 16 0 15 1;
#X connect 17 0 18 0;
#X connect 18 0 6 0;
#X connect 18 0 20 0;
#X connect 18 1 12 0;
#X connect 18 1 19 0;
#X connect 19 0 8 0;
#X connect 20 0 8 0;
