#N canvas 0 23 390 430 10;
#X msg 198 111 \; pd dsp 1;
#X obj 163 73 loadbang;
#X obj 163 148 metro 1000;
#X obj 87 150 osc~ 440;
#X obj 120 261 *~;
#X obj 145 232 line~;
#X msg 150 194 1 \, 0 500;
#X obj 120 282 *~ 0.25;
#X obj 120 337 dac~ 1 2 3 4 5 6 7 8;
#X connect 1 0 0 0;
#X connect 1 0 2 0;
#X connect 2 0 6 0;
#X connect 3 0 4 0;
#X connect 4 0 7 0;
#X connect 5 0 4 1;
#X connect 6 0 5 0;
#X connect 7 0 8 0;
#X connect 7 0 8 1;
#X connect 7 0 8 2;
#X connect 7 0 8 3;
#X connect 7 0 8 4;
#X connect 7 0 8 5;
#X connect 7 0 8 6;
#X connect 7 0 8 7;
