#N canvas 383 285 606 494 10;
#X msg 348 152 \; pd dsp 1;
#X obj 150 33 loadbang;
#X obj 150 108 metro 1000;
#X obj 58 220 osc~ 440;
#X obj 109 308 *~;
#X obj 145 232 line~;
#X msg 150 194 1 \, 0 500;
#X obj 109 329 *~ 0.5;
#X obj 231 180 del 500;
#X obj 202 305 *~;
#X obj 227 276 line~;
#X msg 232 238 1 \, 0 500;
#X obj 202 326 *~ 0.5;
#X obj 161 399 dac~;
#X connect 1 0 0 0;
#X connect 1 0 2 0;
#X connect 2 0 6 0;
#X connect 2 0 8 0;
#X connect 3 0 4 0;
#X connect 3 0 9 0;
#X connect 4 0 7 0;
#X connect 5 0 4 1;
#X connect 6 0 5 0;
#X connect 7 0 13 0;
#X connect 8 0 11 0;
#X connect 9 0 12 0;
#X connect 10 0 9 1;
#X connect 11 0 10 0;
#X connect 12 0 13 1;
