#N canvas 380 298 390 430 10;
#X msg 163 102 \; pd dsp 1;
#X obj 163 73 loadbang;
#X obj 107 163 adc~ 1;
#X obj 122 235 delwrite~ d0 1000;
#X obj 207 289 delread4~ d0 200;
#X obj 207 310 *~ 0.9;
#X obj 107 184 *~ 10;
#X obj 194 360 dac~ 2;
#X connect 1 0 0 0;
#X connect 2 0 6 0;
#X connect 4 0 5 0;
#X connect 5 0 3 0;
#X connect 5 0 7 0;
#X connect 6 0 3 0;
