#N canvas 380 298 390 430 10;
#X msg 269 72 \; pd dsp 1;
#X obj 269 43 loadbang;
#X obj 76 65 adc~ 1 2 3 4 5 6 7 8;
#X obj 107 197 *~ 1;
#X obj 107 240 bonk~;
#X obj 107 298 print raw;
#X connect 1 0 0 0;
#X connect 2 0 3 0;
#X connect 3 0 4 0;
#X connect 4 0 5 0;
