#N canvas 195 219 390 430 10;
#X msg 163 102 \; pd dsp 1;
#X obj 163 73 loadbang;
#X obj 70 180 adc~ 1 2 3 4 5 6 7 8;
#X obj 120 337 *~ 24;
#X obj 120 358 dac~ 2;
#X connect 1 0 0 0;
#X connect 2 0 3 0;
#X connect 2 1 3 0;
#X connect 2 2 3 0;
#X connect 2 3 3 0;
#X connect 2 4 3 0;
#X connect 2 5 3 0;
#X connect 2 6 3 0;
#X connect 2 7 3 0;
#X connect 3 0 4 0;
