#N canvas 380 298 390 430 10;
#X msg 269 72 \; pd dsp 1;
#X obj 269 43 loadbang;
#X obj 122 235 delwrite~ d0 1000;
#X obj 207 289 delread4~ d0 200;
#X obj 207 310 *~ 0.9;
#X obj 107 197 *~ 10;
#X obj 194 360 dac~ 2;
#X obj 76 65 adc~ 1 2 3 4 5 6 7 8;
#X connect 1 0 0 0;
#X connect 3 0 4 0;
#X connect 4 0 2 0;
#X connect 4 0 6 0;
#X connect 5 0 2 0;
#X connect 7 0 5 0;
#X connect 7 1 5 0;
#X connect 7 2 5 0;
#X connect 7 3 5 0;
#X connect 7 4 5 0;
#X connect 7 5 5 0;
#X connect 7 6 5 0;
#X connect 7 7 5 0;
