#N canvas 258 227 450 300 10;
#X obj 139 144 bonk~;
#X obj 166 192 print;
#X msg 213 107 thresh 2.5 5;
#X msg 215 141 minvel 15;
#X msg 333 93 \; pd dsp 1;
#X obj 333 64 loadbang;
#X obj 95 53 adc~ 1 2 3 4 5 6 7 8;
#X connect 0 1 1 0;
#X connect 2 0 0 0;
#X connect 3 0 0 0;
#X connect 5 0 4 0;
#X connect 5 0 2 0;
#X connect 5 0 3 0;
#X connect 6 0 0 0;
#X connect 6 1 0 0;
#X connect 6 2 0 0;
#X connect 6 3 0 0;
#X connect 6 4 0 0;
#X connect 6 5 0 0;
#X connect 6 6 0 0;
#X connect 6 7 0 0;
