#N canvas 589 447 450 300 10;
#X obj 97 193 bonk~;
#X msg 293 139 thresh 2.5 5;
#X msg 295 173 minvel 15;
#X msg 333 93 \; pd dsp 1;
#X obj 333 64 loadbang;
#X obj 95 53 adc~ 1 2 3 4 5 6 7 8;
#X obj 97 252 print IN1;
#X obj 163 193 bonk~;
#X obj 163 252 print IN2;
#X connect 0 1 6 0;
#X connect 1 0 0 0;
#X connect 1 0 7 0;
#X connect 2 0 0 0;
#X connect 2 0 7 0;
#X connect 4 0 3 0;
#X connect 4 0 1 0;
#X connect 4 0 2 0;
#X connect 5 0 0 0;
#X connect 5 1 7 0;
#X connect 7 1 8 0;
