#N canvas 589 447 703 547 10;
#X obj 97 193 bonk~;
#X msg 295 173 minvel 15;
#X msg 333 93 \; pd dsp 1;
#X obj 333 64 loadbang;
#X obj 95 53 adc~ 1 2 3 4 5 6 7 8;
#X obj 66 477 print IN1;
#X obj 162 204 bonk~;
#X obj 194 479 print IN2;
#X obj 447 253 bng 15 250 50 0 empty empty empty 17 7 0 10 -262144
-1 -1;
#X obj 353 488 print;
#X obj 547 251 timer;
#X obj 547 197 t b b;
#X obj 414 372 spigot;
#X msg 503 442 1;
#X obj 499 128 delay 100;
#X msg 499 153 1;
#X msg 447 317 0;
#X obj 447 288 t b l;
#X obj 503 393 t b;
#X obj 503 417 delay 50;
#X msg 293 139 thresh 4 10;
#X connect 0 1 5 0;
#X connect 1 0 0 0;
#X connect 1 0 6 0;
#X connect 3 0 2 0;
#X connect 3 0 20 0;
#X connect 3 0 1 0;
#X connect 4 0 0 0;
#X connect 4 1 6 0;
#X connect 6 1 7 0;
#X connect 8 0 17 0;
#X connect 11 0 10 0;
#X connect 11 1 10 1;
#X connect 12 0 18 0;
#X connect 13 0 12 1;
#X connect 14 0 15 0;
#X connect 16 0 12 1;
#X connect 17 0 16 0;
#X connect 17 1 12 0;
#X connect 18 0 19 0;
#X connect 19 0 13 0;
#X connect 20 0 0 0;
#X connect 20 0 6 0;
