#N canvas 627 429 851 539 12;
#X obj 56 44 singleton~;
#X obj 266 44 singleton2~;
#X obj 66 54 singleton~;
#X obj 276 54 singleton2~;
#X obj 76 64 singleton~;
#X obj 286 64 singleton2~;
#X obj 86 74 singleton~;
#X obj 296 74 singleton2~;
#X obj 96 84 singleton~;
#X obj 306 84 singleton2~;
#X obj 106 94 singleton~;
#X obj 316 94 singleton2~;
#X obj 116 104 singleton~;
#X obj 326 104 singleton2~;
#X obj 126 114 singleton~;
#X obj 336 114 singleton2~;
#X obj 136 124 singleton~;
#X obj 346 124 singleton2~;
#X obj 146 134 singleton~;
#X obj 356 134 singleton2~;
#X obj 156 144 singleton~;
#X obj 366 144 singleton2~;
#X obj 166 154 singleton~;
#X obj 376 154 singleton2~;
#X obj 176 164 singleton~;
#X obj 386 164 singleton2~;
#X obj 186 174 singleton~;
#X obj 396 174 singleton2~;
#X obj 196 184 singleton~;
#X obj 406 184 singleton2~;
#X obj 206 194 singleton~;
#X obj 416 194 singleton2~;
#X obj 177 313 catch~ sig;
#X obj 280 269 catch~ sig2;
#X obj 264 457 dac~;
#X msg 621 164 \; pd dsp 1;
#X obj 508 65 loadbang;
#X obj 508 271 netreceive -u -b;
#X obj 508 305 oscparse;
#X obj 596 430 print oscparsed;
#X msg 508 216 listen 30200;
#X obj 243 393 *~;
#X obj 298 392 *~;
#X obj 392 454 expr~ $v1 < 0.5;
#X obj 508 334 list trim;
#X obj 508 363 list split 1;
#X obj 392 425 phasor~ 1;
#X connect 32 0 41 0;
#X connect 33 0 42 0;
#X connect 36 0 35 0;
#X connect 36 0 40 0;
#X connect 37 0 38 0;
#X connect 38 0 44 0;
#X connect 40 0 37 0;
#X connect 41 0 34 0;
#X connect 42 0 34 1;
#X connect 43 0 42 1;
#X connect 43 0 41 1;
#X connect 44 0 45 0;
#X connect 45 1 39 0;
#X connect 45 1 46 0;
#X connect 46 0 43 0;
