#N canvas 125 524 450 300 12;
#X floatatom 49 16 5 0 0 0 - - -, f 5;
#X obj 203 215 sendOSC;
#X msg 49 44 send /tastooma \$1;
#X msg 182 114 connect 192.168.1.9 30200;
#X msg 235 148 disconnect;
#X connect 0 0 2 0;
#X connect 2 0 1 0;
#X connect 3 0 1 0;
#X connect 4 0 1 0;
