#N canvas 710 392 450 300 10;
#X obj 19 20 loadbang;
#X obj 19 52 metro 1000;
#X obj 19 77 random 1000;
#X obj 19 102 / 1000;
#X obj 19 127 pwm2;
#X connect 0 0 1 0;
#X connect 1 0 2 0;
#X connect 2 0 3 0;
#X connect 3 0 4 0;
