#N canvas 710 392 450 300 10;
#X obj 19 20 loadbang;
#X obj 19 155 metro 100;
#X obj 19 180 blinky;
#X obj 165 157 oscparse;
#X obj 165 128 netreceive -u -b;
#X msg 165 92 listen 8000;
#X obj 165 189 list trim;
#X obj 165 214 list split 1;
#X connect 0 0 1 0;
#X connect 0 0 5 0;
#X connect 1 0 2 0;
#X connect 3 0 6 0;
#X connect 4 0 3 0;
#X connect 5 0 4 0;
#X connect 6 0 7 0;
#X connect 7 1 1 1;
