#N canvas 404 540 387 300 12;
#X obj 92 142 osc~;
#X obj 92 52 loadbang;
#X obj 92 81 random 1800;
#X obj 92 110 + 200;
#X obj 92 171 *~ 0.01;
#X obj 92 200 throw~ sig;
#X connect 0 0 4 0;
#X connect 1 0 2 0;
#X connect 2 0 3 0;
#X connect 3 0 0 0;
#X connect 4 0 5 0;
