#N canvas 675 413 675 486 10;
#X obj 83 35 loadbang;
#X obj 83 97 metro 1000;
#X obj 352 151 print -n;
#X obj 83 148 print -n;
#X msg 352 96 Patch number 1: print Hello World! on the console, f
28;
#X msg 83 122 Hello World!;
#X obj 83 60 t b b b;
#X msg 209 118;
#X obj 209 143 print -n;
#X connect 0 0 6 0;
#X connect 1 0 5 0;
#X connect 4 0 2 0;
#X connect 5 0 3 0;
#X connect 6 0 1 0;
#X connect 6 1 7 0;
#X connect 6 2 4 0;
#X connect 7 0 8 0;
