#N canvas 675 413 675 486 10;
#X obj 83 35 loadbang;
#X obj 83 97 metro 1000;
#X obj 282 81 loadbang;
#X obj 282 161 print -n;
#X obj 83 148 print -n;
#X msg 282 106 Patch number 1: print Hello World! on the console;
#X msg 83 122 Hello World!;
#X connect 0 0 1 0;
#X connect 1 0 6 0;
#X connect 2 0 5 0;
#X connect 5 0 3 0;
#X connect 6 0 4 0;
