#N canvas 511 530 586 412 100;
#X obj 82 117 loadbang;
#X obj 82 167 metro 1000;
#X msg 169 189 connect 192.168.1.116 7000;
#X obj 82 335 netsend -u -b;
#X obj 82 138 t b b, f 15;
#X msg 82 261 send 1 2 3 4;
#X connect 0 0 4 0;
#X connect 1 0 5 0;
#X connect 2 0 3 0;
#X connect 4 0 1 0;
#X connect 4 1 2 0;
#X connect 5 0 3 0;
