#N canvas 736 493 450 300 12;
#X obj 49 233 print rcv;
#X obj 49 201 oscparse;
#X obj 49 172 netreceive -u -b;
#X msg 49 136 listen 8000;
#X obj 49 10 loadbang;
#X obj 214 99 metro 4000;
#X obj 214 128 print listening...;
#X connect 1 0 0 0;
#X connect 2 0 1 0;
#X connect 3 0 2 0;
#X connect 4 0 3 0;
#X connect 4 0 5 0;
#X connect 5 0 6 0;
