#N canvas 583 331 450 300 12;
#X obj 58 24 loadbang;
#X obj 58 147 line;
#X msg 58 118 0 \, 1 1500;
#X obj 58 176 pwm2;
#X msg 144 117 0 1500;
#X obj 58 59 metro 3000;
#X obj 140 59 delay 1500;
#X connect 0 0 5 0;
#X connect 1 0 3 0;
#X connect 2 0 1 0;
#X connect 4 0 1 0;
#X connect 5 0 2 0;
#X connect 5 0 6 0;
#X connect 6 0 4 0;
